<svg width="60" height="61" viewBox="0 0 60 61" fill="none" xmlns="http://www.w3.org/2000/svg">
<path d="M53.5 7.52432C57.8594 7.52432 59.7197 9.76071 59.9863 11.3603L60.001 11.4491L60 11.539L59.5 45.9843C59.7081 47.818 59.1749 49.2278 58.3652 50.2284C57.5678 51.2138 56.533 51.7695 55.7744 51.9862L55.6396 52.0243H18.3955L9 60.8329V51.0243C9 50.472 9.44772 50.0243 10 50.0243C10.5523 50.0243 11 50.472 11 51.0243V56.2157L17.6045 50.0243H55.3418C55.7522 49.8803 56.346 49.5446 56.8105 48.9706C57.2968 48.3698 57.6734 47.4736 57.5078 46.1483L57.499 46.079L57.998 11.6239C57.8639 11.1268 56.9697 9.52432 53.5 9.52432H48C47.4478 9.52432 47.0001 9.07655 47 8.52432C47 7.97203 47.4477 7.52432 48 7.52432H53.5Z" fill="black"/>
<path d="M11.5 8.02432C12.0523 8.02432 12.5 8.47203 12.5 9.02432C12.4999 9.57655 12.0522 10.0243 11.5 10.0243H4.5C4.13713 10.0244 3.5146 10.1746 2.99219 10.6581C2.4988 11.1149 2 11.9572 2 13.5243C2 17.1211 2.00079 37.8324 2.49316 47.8495C2.81657 48.8425 3.92462 50.5243 6 50.5243C6.55228 50.5243 7 50.972 7 51.5243C6.99993 52.0765 6.55224 52.5243 6 52.5243C2.54736 52.5242 0.926166 49.6569 0.538086 48.2987L0.506836 48.1884L0.500977 48.0741C-0.000691354 38.0431 -1.03891e-08 17.1132 5.35238e-09 13.5243C5.35238e-09 11.4916 0.667952 10.0836 1.63281 9.19033C2.56865 8.32405 3.69624 8.02435 4.5 8.02432H11.5Z" fill="black"/>
<path fill-rule="evenodd" clip-rule="evenodd" d="M28.9395 0.0262704C31.8663 -0.151066 36.2553 0.533441 39.9912 3.1835C43.7778 5.86968 46.7919 10.5054 47 17.997V19.0165C47.9123 19.0738 48.9742 19.3027 49.9287 19.8407C51.3747 20.6558 52.5 22.1476 52.5 24.5243C52.4999 29.0077 49.8145 30.7755 48.1416 31.0146C47.9106 31.0475 47.6873 30.9972 47.5 30.8886V33.123L47.4805 33.2206C46.7649 36.7977 43.0996 44.1618 34.0947 45.0194L34.0479 45.0243H31V44.0243C31 43.7349 30.9248 43.244 30.707 42.8114C30.4993 42.3988 30.2015 42.1051 29.7578 41.994C29.0692 41.8219 28.5382 41.9977 28.1689 42.33C27.7816 42.6786 27.5 43.2695 27.5 44.0243C27.5 44.6783 27.8213 45.2304 28.3369 45.5478C28.8457 45.8607 29.6336 45.9937 30.6289 45.5956C31.1416 45.3907 31.7236 45.6406 31.9287 46.1532C32.1335 46.6659 31.8837 47.248 31.3711 47.453C29.8668 48.0546 28.4042 47.9377 27.2881 47.2509C26.1789 46.5682 25.5 45.3701 25.5 44.0243C25.5 42.7792 25.9685 41.62 26.8311 40.8437C27.7118 40.051 28.9309 39.7269 30.2422 40.0546C31.3983 40.3436 32.101 41.1331 32.4932 41.912C32.6799 42.283 32.8045 42.6662 32.8838 43.0243H33.9502C41.6384 42.269 44.8404 36.0321 45.5 32.9169V24.5243C45.5 23.972 45.9477 23.5243 46.5 23.5243C47.0523 23.5243 47.5 23.972 47.5 24.5243V29.1581C47.6073 29.096 47.7281 29.0527 47.8584 29.0341C48.519 28.9396 50.4999 28.04 50.5 24.5243C50.5 22.9015 49.7917 22.0595 48.9463 21.5829C48.0271 21.065 46.8709 20.9495 46.0908 21.0204L45 21.119V18.0243C44.8015 11.1333 42.0678 7.10946 38.834 4.81533C35.5625 2.49462 31.6751 1.87346 29.1016 2.02041C18.5794 3.5439 15.3244 12.0207 15 16.0712V30.9296L14.0996 31.0194C11.2437 31.305 9.20866 30.1428 8.18359 28.2509C7.2004 26.4357 7.23333 24.1091 8.08105 22.1308C8.7987 20.4562 9.9841 19.553 11.1973 19.1503C11.822 18.943 12.4433 18.8732 13 18.8837V15.9862L13.0029 15.9481C13.3585 11.3251 17.0387 1.72279 28.8584 0.0340829L28.8994 0.0282235L28.9395 0.0262704ZM13 20.8837C12.6447 20.8734 12.2356 20.9136 11.8281 21.0487C11.1332 21.2794 10.4012 21.7927 9.91895 22.9179C9.26691 24.4394 9.30072 26.113 9.94238 27.2978C10.4527 28.2396 11.4075 28.984 13 29.0546V20.8837Z" fill="black"/>
</svg>
